<svg width="32" height="32" viewBox="0 0 32 32" fill="none" xmlns="http://www.w3.org/2000/svg">
<path d="M9.39 3.51V14.13C9.89 13.01 10.58 12.22 11.46 11.76C12.36 11.3 13.33 11.07 14.37 11.07C15.19 11.07 15.86 11.18 16.38 11.4C16.9 11.62 17.32 11.9 17.64 12.24C17.98 12.62 18.22 13.11 18.36 13.71C18.52 14.31 18.6 15.12 18.6 16.14V24.21C18.6 25.05 18.75 25.62 19.05 25.92C19.37 26.22 19.9 26.37 20.64 26.37V27C20.28 26.98 19.73 26.96 18.99 26.94C18.25 26.9 17.52 26.88 16.8 26.88C16.08 26.88 15.37 26.9 14.67 26.94C13.97 26.96 13.44 26.98 13.08 27V26.37C13.72 26.37 14.17 26.22 14.43 25.92C14.69 25.62 14.82 25.05 14.82 24.21V15.12C14.82 14.58 14.77 14.1 14.67 13.68C14.57 13.24 14.37 12.9 14.07 12.66C13.79 12.4 13.36 12.27 12.78 12.27C12.14 12.27 11.56 12.45 11.04 12.81C10.54 13.15 10.14 13.64 9.84 14.28C9.54 14.9 9.39 15.61 9.39 16.41V24.21C9.39 25.05 9.52 25.62 9.78 25.92C10.06 26.22 10.51 26.37 11.13 26.37V27C10.79 26.98 10.28 26.96 9.6 26.94C8.94 26.9 8.25 26.88 7.53 26.88C6.81 26.88 6.06 26.9 5.28 26.94C4.52 26.96 3.95 26.98 3.57 27V26.37C4.31 26.37 4.83 26.22 5.13 25.92C5.45 25.62 5.61 25.05 5.61 24.21V7.11C5.61 6.21 5.46 5.55 5.16 5.13C4.88 4.69 4.35 4.47 3.57 4.47V3.84C4.21 3.9 4.83 3.93 5.43 3.93C6.19 3.93 6.9 3.9 7.56 3.84C8.22 3.76 8.83 3.65 9.39 3.51ZM25.0069 23.04C25.6869 23.04 26.2469 23.24 26.6869 23.64C27.1269 24.04 27.3469 24.57 27.3469 25.23C27.3469 25.89 27.1269 26.42 26.6869 26.82C26.2469 27.22 25.6869 27.42 25.0069 27.42C24.3069 27.42 23.7369 27.22 23.2969 26.82C22.8769 26.42 22.6669 25.89 22.6669 25.23C22.6669 24.57 22.8769 24.04 23.2969 23.64C23.7369 23.24 24.3069 23.04 25.0069 23.04Z" fill="white"/>
</svg>
