<svg width="300" height="60" viewBox="0 0 300 60" fill="none" xmlns="http://www.w3.org/2000/svg">
<g clip-path="url(#clip0_42_2)">
<rect width="300" height="60" rx="5" fill="#FD8A8A"/>
<path d="M150.755 21.0049C140.976 20.7371 131.839 31.549 132.002 32.5532C132.165 33.5574 142.215 39.75 150.755 39.75C157.586 39.75 168 33.8922 168 32.5532C168 31.2143 160.533 21.2727 150.755 21.0049Z" fill="white" stroke="#151515"/>
<ellipse cx="150" cy="30.375" rx="6" ry="6.375" fill="#151515"/>
<circle r="3.5" transform="matrix(-1 0 0 1 13.5 59.5)" fill="#151515"/>
<circle r="2.5" transform="matrix(-1 0 0 1 4.5 47.5)" fill="#151515"/>
<circle r="2.5" transform="matrix(-1 0 0 1 28.5 46.5)" fill="#151515"/>
<circle r="2.5" transform="matrix(-1 0 0 1 13.5 39.5)" fill="#151515"/>
<circle r="3.5" transform="matrix(-1 0 0 1 295.5 20.5)" fill="#151515"/>
<circle r="4.5" transform="matrix(-1 0 0 1 289.5 1.5)" fill="#151515"/>
<circle r="1.5" transform="matrix(-1 0 0 1 283.5 28.5)" fill="#151515"/>
<circle r="4.5" transform="matrix(-0.361639 0.932318 0.932318 0.361639 34.5933 12.8597)" fill="#151515"/>
<path d="M34.7514 10.378L27.697 1.60387L38.8229 -0.118321L34.7514 10.378Z" stroke="#151515"/>
<circle r="4" transform="matrix(-1 0 0 1 242 56)" fill="#151515"/>
<rect x="231.5" y="58.5" width="10" height="4" stroke="#151515"/>
</g>
<defs>
<clipPath id="clip0_42_2">
<rect width="300" height="60" rx="5" fill="white"/>
</clipPath>
</defs>
</svg>
